<?xml version="1.0" standalone="no"?>
<!DOCTYPE svg PUBLIC "-//W3C//DTD SVG 20010904//EN"
 "http://www.w3.org/TR/2001/REC-SVG-20010904/DTD/svg10.dtd">
<svg version="1.0" xmlns="http://www.w3.org/2000/svg"
 width="300.000000pt" height="300.000000pt" viewBox="0 0 300.000000 300.000000"
 preserveAspectRatio="xMidYMid meet">
<metadata>
Created by potrace 1.11, written by Peter Selinger 2001-2013
</metadata>
<g transform="translate(0.000000,300.000000) scale(0.100000,-0.100000)"
fill="#000000" stroke="none">
<path d="M1350 2993 c-142 -21 -226 -38 -298 -64 -48 -16 -91 -31 -97 -33
-121 -39 -327 -163 -434 -261 -290 -263 -450 -556 -506 -924 -19 -123 -12
-370 13 -496 75 -373 282 -701 583 -921 96 -71 128 -90 239 -144 81 -40 226
-93 280 -104 14 -2 48 -9 75 -16 110 -25 357 -34 485 -18 566 73 1041 461
1229 1004 83 239 101 543 47 804 -52 254 -202 531 -394 727 -226 231 -492 370
-827 434 -58 11 -344 20 -395 12z"/>
</g>
</svg>
